<mxfile host="65bd71144e">
    <diagram id="fqi36eyz3lenITn_egLw" name="int">
        <mxGraphModel dx="737" dy="536" grid="1" gridSize="10" guides="1" tooltips="1" connect="1" arrows="1" fold="1" page="1" pageScale="1" pageWidth="827" pageHeight="1169" math="0" shadow="0">
            <root>
                <mxCell id="0"/>
                <mxCell id="1" parent="0"/>
                <mxCell id="6" value="" style="edgeStyle=none;html=1;" parent="1" source="2" target="5" edge="1">
                    <mxGeometry relative="1" as="geometry"/>
                </mxCell>
                <mxCell id="2" value="&amp;amp;" style="ellipse;whiteSpace=wrap;html=1;aspect=fixed;" parent="1" vertex="1">
                    <mxGeometry x="240" y="400" width="80" height="80" as="geometry"/>
                </mxCell>
                <mxCell id="5" value="0061FF1C" style="whiteSpace=wrap;html=1;" parent="1" vertex="1">
                    <mxGeometry x="220" y="550" width="120" height="60" as="geometry"/>
                </mxCell>
                <mxCell id="10" value="" style="edgeStyle=none;html=1;" parent="1" source="7" target="9" edge="1">
                    <mxGeometry relative="1" as="geometry"/>
                </mxCell>
                <mxCell id="11" value="" style="edgeStyle=none;html=1;" parent="1" source="7" target="2" edge="1">
                    <mxGeometry relative="1" as="geometry"/>
                </mxCell>
                <mxCell id="7" value="int num" style="ellipse;whiteSpace=wrap;html=1;aspect=fixed;" parent="1" vertex="1">
                    <mxGeometry x="400" y="400" width="80" height="80" as="geometry"/>
                </mxCell>
                <mxCell id="9" value="42" style="whiteSpace=wrap;html=1;" parent="1" vertex="1">
                    <mxGeometry x="380" y="550" width="120" height="60" as="geometry"/>
                </mxCell>
                <mxCell id="14" value="" style="edgeStyle=none;html=1;" parent="1" source="12" target="2" edge="1">
                    <mxGeometry relative="1" as="geometry">
                        <mxPoint x="440" y="289.9999999999999" as="targetPoint"/>
                    </mxGeometry>
                </mxCell>
                <mxCell id="12" value="int *ptr_num" style="ellipse;whiteSpace=wrap;html=1;aspect=fixed;" parent="1" vertex="1">
                    <mxGeometry x="240" y="280" width="80" height="80" as="geometry"/>
                </mxCell>
                <mxCell id="33" style="edgeStyle=none;html=1;" parent="1" source="19" target="2" edge="1">
                    <mxGeometry relative="1" as="geometry"/>
                </mxCell>
                <mxCell id="34" value="" style="edgeStyle=none;html=1;" parent="1" source="19" target="28" edge="1">
                    <mxGeometry relative="1" as="geometry"/>
                </mxCell>
                <mxCell id="19" value="ptr_num" style="ellipse;whiteSpace=wrap;html=1;aspect=fixed;" parent="1" vertex="1">
                    <mxGeometry x="400" y="80" width="80" height="80" as="geometry"/>
                </mxCell>
                <mxCell id="22" value="" style="edgeStyle=none;html=1;" parent="1" source="20" target="12" edge="1">
                    <mxGeometry relative="1" as="geometry"/>
                </mxCell>
                <mxCell id="20" value="Ponteiro&lt;br&gt;&lt;br&gt;Quando inicializar" style="whiteSpace=wrap;html=1;fillColor=#fff2cc;strokeColor=#d6b656;" parent="1" vertex="1">
                    <mxGeometry x="80" y="290" width="120" height="60" as="geometry"/>
                </mxCell>
                <mxCell id="24" value="" style="edgeStyle=none;html=1;" parent="1" source="23" target="2" edge="1">
                    <mxGeometry relative="1" as="geometry"/>
                </mxCell>
                <mxCell id="23" value="Referência&lt;br&gt;&lt;br&gt;&amp;amp; de &amp;amp;ndereço" style="whiteSpace=wrap;html=1;fillColor=#fff2cc;strokeColor=#d6b656;" parent="1" vertex="1">
                    <mxGeometry x="80" y="410" width="120" height="60" as="geometry"/>
                </mxCell>
                <mxCell id="27" value="" style="edgeStyle=none;html=1;" parent="1" source="25" target="26" edge="1">
                    <mxGeometry relative="1" as="geometry"/>
                </mxCell>
                <mxCell id="25" value="Derreferência" style="whiteSpace=wrap;html=1;fillColor=#fff2cc;strokeColor=#d6b656;" parent="1" vertex="1">
                    <mxGeometry x="680" y="90" width="120" height="60" as="geometry"/>
                </mxCell>
                <mxCell id="30" value="" style="edgeStyle=none;html=1;" parent="1" source="26" target="7" edge="1">
                    <mxGeometry relative="1" as="geometry">
                        <mxPoint x="600" y="290" as="targetPoint"/>
                    </mxGeometry>
                </mxCell>
                <mxCell id="26" value="*ptr_num" style="ellipse;whiteSpace=wrap;html=1;aspect=fixed;" parent="1" vertex="1">
                    <mxGeometry x="560" y="80" width="80" height="80" as="geometry"/>
                </mxCell>
                <mxCell id="37" value="" style="edgeStyle=none;html=1;" parent="1" source="28" target="36" edge="1">
                    <mxGeometry relative="1" as="geometry"/>
                </mxCell>
                <mxCell id="28" value="&amp;amp;" style="ellipse;whiteSpace=wrap;html=1;aspect=fixed;" parent="1" vertex="1">
                    <mxGeometry x="240" y="80" width="80" height="80" as="geometry"/>
                </mxCell>
                <mxCell id="36" value="0061FF18" style="whiteSpace=wrap;html=1;" parent="1" vertex="1">
                    <mxGeometry x="220" y="180" width="120" height="60" as="geometry"/>
                </mxCell>
            </root>
        </mxGraphModel>
    </diagram>
    <diagram id="JAfqK2PRAVvPNnZCHoEv" name="endereço">
        <mxGraphModel dx="867" dy="631" grid="1" gridSize="10" guides="1" tooltips="1" connect="1" arrows="1" fold="1" page="1" pageScale="1" pageWidth="827" pageHeight="1169" math="0" shadow="0">
            <root>
                <mxCell id="JxclS5aUc1qYmyl2ujNz-0"/>
                <mxCell id="JxclS5aUc1qYmyl2ujNz-1" parent="JxclS5aUc1qYmyl2ujNz-0"/>
                <mxCell id="nAl_YNylXOnN3Ayfxtux-0" style="edgeStyle=none;rounded=0;orthogonalLoop=1;jettySize=auto;html=1;fontSize=30;" edge="1" parent="JxclS5aUc1qYmyl2ujNz-1" source="nAl_YNylXOnN3Ayfxtux-1" target="nAl_YNylXOnN3Ayfxtux-9">
                    <mxGeometry relative="1" as="geometry"/>
                </mxCell>
                <mxCell id="nAl_YNylXOnN3Ayfxtux-1" value="" style="rounded=0;whiteSpace=wrap;html=1;fontSize=30;" vertex="1" parent="JxclS5aUc1qYmyl2ujNz-1">
                    <mxGeometry x="200" y="240" width="60" height="40" as="geometry"/>
                </mxCell>
                <mxCell id="nAl_YNylXOnN3Ayfxtux-2" style="edgeStyle=none;rounded=0;orthogonalLoop=1;jettySize=auto;html=1;fontSize=30;" edge="1" parent="JxclS5aUc1qYmyl2ujNz-1" source="nAl_YNylXOnN3Ayfxtux-3" target="nAl_YNylXOnN3Ayfxtux-10">
                    <mxGeometry relative="1" as="geometry"/>
                </mxCell>
                <mxCell id="nAl_YNylXOnN3Ayfxtux-3" value="" style="rounded=0;whiteSpace=wrap;html=1;fontSize=30;" vertex="1" parent="JxclS5aUc1qYmyl2ujNz-1">
                    <mxGeometry x="260" y="240" width="60" height="40" as="geometry"/>
                </mxCell>
                <mxCell id="nAl_YNylXOnN3Ayfxtux-4" style="edgeStyle=none;rounded=0;orthogonalLoop=1;jettySize=auto;html=1;fontSize=30;" edge="1" parent="JxclS5aUc1qYmyl2ujNz-1" source="nAl_YNylXOnN3Ayfxtux-5" target="nAl_YNylXOnN3Ayfxtux-13">
                    <mxGeometry relative="1" as="geometry"/>
                </mxCell>
                <mxCell id="nAl_YNylXOnN3Ayfxtux-5" value="" style="rounded=0;whiteSpace=wrap;html=1;fontSize=30;" vertex="1" parent="JxclS5aUc1qYmyl2ujNz-1">
                    <mxGeometry x="320" y="240" width="60" height="40" as="geometry"/>
                </mxCell>
                <mxCell id="nAl_YNylXOnN3Ayfxtux-6" style="edgeStyle=none;rounded=0;orthogonalLoop=1;jettySize=auto;html=1;fontSize=30;" edge="1" parent="JxclS5aUc1qYmyl2ujNz-1" source="nAl_YNylXOnN3Ayfxtux-7" target="nAl_YNylXOnN3Ayfxtux-15">
                    <mxGeometry relative="1" as="geometry"/>
                </mxCell>
                <mxCell id="nAl_YNylXOnN3Ayfxtux-7" value="" style="rounded=0;whiteSpace=wrap;html=1;fontSize=30;" vertex="1" parent="JxclS5aUc1qYmyl2ujNz-1">
                    <mxGeometry x="380" y="240" width="60" height="40" as="geometry"/>
                </mxCell>
                <mxCell id="nAl_YNylXOnN3Ayfxtux-8" value="" style="rounded=0;whiteSpace=wrap;html=1;fontSize=30;" vertex="1" parent="JxclS5aUc1qYmyl2ujNz-1">
                    <mxGeometry x="440" y="240" width="60" height="40" as="geometry"/>
                </mxCell>
                <mxCell id="nAl_YNylXOnN3Ayfxtux-9" value="" style="rounded=0;whiteSpace=wrap;html=1;fontSize=30;" vertex="1" parent="JxclS5aUc1qYmyl2ujNz-1">
                    <mxGeometry x="200" y="120" width="60" height="40" as="geometry"/>
                </mxCell>
                <mxCell id="nAl_YNylXOnN3Ayfxtux-10" value="" style="rounded=0;whiteSpace=wrap;html=1;fontSize=30;" vertex="1" parent="JxclS5aUc1qYmyl2ujNz-1">
                    <mxGeometry x="260" y="120" width="60" height="40" as="geometry"/>
                </mxCell>
                <mxCell id="nAl_YNylXOnN3Ayfxtux-11" value="xx" style="rounded=0;whiteSpace=wrap;html=1;fontSize=30;" vertex="1" parent="JxclS5aUc1qYmyl2ujNz-1">
                    <mxGeometry x="320" y="120" width="60" height="40" as="geometry"/>
                </mxCell>
                <mxCell id="nAl_YNylXOnN3Ayfxtux-12" value="xx" style="rounded=0;whiteSpace=wrap;html=1;fontSize=30;" vertex="1" parent="JxclS5aUc1qYmyl2ujNz-1">
                    <mxGeometry x="380" y="120" width="60" height="40" as="geometry"/>
                </mxCell>
                <mxCell id="nAl_YNylXOnN3Ayfxtux-13" value="" style="rounded=0;whiteSpace=wrap;html=1;fontSize=30;" vertex="1" parent="JxclS5aUc1qYmyl2ujNz-1">
                    <mxGeometry x="440" y="120" width="60" height="40" as="geometry"/>
                </mxCell>
                <mxCell id="nAl_YNylXOnN3Ayfxtux-14" value="xx" style="rounded=0;whiteSpace=wrap;html=1;fontSize=30;" vertex="1" parent="JxclS5aUc1qYmyl2ujNz-1">
                    <mxGeometry x="500" y="120" width="60" height="40" as="geometry"/>
                </mxCell>
                <mxCell id="nAl_YNylXOnN3Ayfxtux-15" value="" style="rounded=0;whiteSpace=wrap;html=1;fontSize=30;" vertex="1" parent="JxclS5aUc1qYmyl2ujNz-1">
                    <mxGeometry x="560" y="120" width="60" height="40" as="geometry"/>
                </mxCell>
                <mxCell id="nAl_YNylXOnN3Ayfxtux-16" value="xx" style="rounded=0;whiteSpace=wrap;html=1;fontSize=30;" vertex="1" parent="JxclS5aUc1qYmyl2ujNz-1">
                    <mxGeometry x="620" y="120" width="60" height="40" as="geometry"/>
                </mxCell>
            </root>
        </mxGraphModel>
    </diagram>
</mxfile>